<svg width="16" height="16" viewBox="0 0 16 16" version="1.1" xmlns="http://www.w3.org/2000/svg" xmlns:xlink="http://www.w3.org/1999/xlink">
<title>safari-pinned-tab</title>
<desc>Created using Figma</desc>
<g id="Canvas" transform="matrix(0.032 0 0 0.032 -1.312 11.392)">
<clipPath id="clip-0" clip-rule="evenodd">
<path d="M 41 -356L 541 -356L 541 144L 41 144L 41 -356Z" fill="#FFFFFF"/>
</clipPath>
<g id="safari-pinned-tab" clip-path="url(#clip-0)">
<g id="safari-pinned-tab">
<g id="Group">
<g id="Group">
<g id="Vector">
<use xlink:href="#path0_fill" transform="translate(76 -301)"/>
</g>
</g>
</g>
</g>
</g>
</g>
<defs>
<path id="path0_fill" d="M 390.909 182.265L 390.909 117.17L 234.546 117.17L 234.546 72.876C 246.226 66.122 254.091 53.5101 254.091 39.0564C 254.091 17.4862 236.589 6.0178e-07 215.001 6.0178e-07C 193.413 6.0178e-07 175.91 17.4871 175.91 39.0564C 175.91 53.5101 183.775 66.1211 195.456 72.876L 195.456 117.17L 39.0905 117.17L 39.0905 182.265L 0 182.265L 0 286.416L 39.0905 286.416L 39.0905 351.511L 156.363 351.511L 156.363 390.568L 273.635 390.568L 273.635 351.511L 390.908 351.511L 390.908 286.416L 430 286.416L 430 182.265L 390.909 182.265ZM 136.818 234.34C 122.427 234.34 110.758 222.683 110.758 208.303C 110.758 193.922 122.427 182.265 136.818 182.265C 151.21 182.265 162.878 193.922 162.878 208.303C 162.878 222.683 151.211 234.34 136.818 234.34ZM 215 331.983C 182.616 331.983 156.364 305.754 156.364 273.398L 273.636 273.398C 273.636 305.754 247.384 331.983 215 331.983ZM 293.182 234.34C 278.789 234.34 267.122 222.683 267.122 208.303C 267.122 193.922 278.79 182.265 293.182 182.265C 307.573 182.265 319.242 193.922 319.242 208.303C 319.242 222.683 307.573 234.34 293.182 234.34Z"/>
</defs>
</svg>
